<svg id="Livello_1" data-name="Livello 1" xmlns="http://www.w3.org/2000/svg" xmlns:xlink="http://www.w3.org/1999/xlink" viewBox="0 0 1600 1200"><defs><style>.cls-1{fill:none;}.cls-2{clip-path:url(#clip-path);}.cls-3{fill:#74ba80;}</style><clipPath id="clip-path"><rect class="cls-1" width="1600" height="1200"/></clipPath></defs><g class="cls-2"><path class="cls-3" d="M-109.72,500.74c123.65,73,309.18,19.08,422.51-65.13,116.82-86.8,110.42-171.28,207.8-289.46C740-120.16,1075.86-59.4,1081.63-136.08c9.64-128.15-908.74-560.11-1232.91-166.44C-332.31-82.67-315.42,379.36-109.72,500.74Z"/><path class="cls-3" d="M272.7,1346.89c-29.18-124.75,143.59-312.21,320.08-361.38,192.85-53.74,265,5.61,459.47-51.63,98.52-29,158.23-57.19,335.57-254.29,207.57-230.7,425.94-238.18,475-223.93,99.71,29-70.62,380.42-82.61,504-22.1,228-33.16,342-82.6,418.17C1437.77,1778,337.38,1623.39,272.7,1346.89Z"/></g></svg>
