<svg xmlns="http://www.w3.org/2000/svg" viewBox="0 0 500 500"><defs><style>.cls-1{fill:#f4e580;}.cls-2{fill:none;stroke:#f4e580;stroke-linecap:round;stroke-miterlimit:10;stroke-width:4.28px;}</style></defs><g id="Logo"><path class="cls-1" d="M242.88,304.86l13,11.08-3.38,3.94-8.87-7.59-4,4.7,7.69,6.58-3.38,3.94-7.68-6.58-7,8.14-4.08-3.49Z"/><path class="cls-1" d="M260.74,318.49l4.71,2.58L252.35,345l-4.71-2.58Z"/><path class="cls-1" d="M288.22,358.12,272.64,335l1.33,1.25-3.9,16.21-5.29-1.31,6.82-27.52.21.06L287,346.63l-1-.79,4-16.54,5.26,1.31-6.83,27.55Z"/><path class="cls-1" d="M303.87,357.92l-2.61-27.15,8.12-.78a18,18,0,0,1,7.09.55,12.49,12.49,0,0,1,4.94,2.8,13,13,0,0,1,3,4.29,16.35,16.35,0,0,1,1.29,5,13.07,13.07,0,0,1-.56,5.54,12.6,12.6,0,0,1-2.57,4.42,13.22,13.22,0,0,1-4.11,3,15.25,15.25,0,0,1-5.15,1.41Zm4.85-5.68,3.18-.31a12.08,12.08,0,0,0,3.63-.88,8.24,8.24,0,0,0,2.71-1.85,6.83,6.83,0,0,0,1.6-2.77,9.64,9.64,0,0,0,.3-3.66,9.4,9.4,0,0,0-1.29-4.25,7.21,7.21,0,0,0-2.39-2.4,7.89,7.89,0,0,0-2.72-1,9.53,9.53,0,0,0-2.28-.14l-4.36.42Z"/><path class="cls-1" d="M328.79,326.86l17.12-7.28,2,4.78-12.17,5.17,2.27,5.36,10.78-4.59,2,4.78-10.77,4.58,2.3,5.42L355,339.7l2,4.78L339.47,352Z"/><path class="cls-1" d="M357,311.34a14.44,14.44,0,0,1,3.92-2.4,9.14,9.14,0,0,1,3.77-.71,7.77,7.77,0,0,1,3.42.92,9.78,9.78,0,0,1,3,2.48,11.61,11.61,0,0,1,1.73,2.89,8.44,8.44,0,0,1,.68,3.38,8.1,8.1,0,0,1-.89,3.6,11.32,11.32,0,0,1-3,3.57l-3,2.45,5.52,6.69L368,337.63l-17.37-21Zm9.25,9.75a4.65,4.65,0,0,0,1.32-1.61,3.58,3.58,0,0,0,.32-1.62,4.46,4.46,0,0,0-.32-1.44,4.72,4.72,0,0,0-.66-1.11,6.33,6.33,0,0,0-.82-.79,4.4,4.4,0,0,0-1.3-.73,3.24,3.24,0,0,0-1.71-.12,4.48,4.48,0,0,0-2,1.05l-3,2.46,5.24,6.34Zm6-.64,11.91,3.82-4.83,4-11.92-3.61Z"/><path class="cls-1" d="M303.75,311a71.33,71.33,0,1,1,71.33-71.33A71.41,71.41,0,0,1,303.75,311Zm0-122.7a51.38,51.38,0,1,0,51.37,51.37A51.42,51.42,0,0,0,303.75,188.26Z"/><path class="cls-1" d="M112.54,155.12l17-6.86,1.94,4.81-6.16,2.48L133.62,176l-5,2-8.24-20.49-5.92,2.38Z"/><path class="cls-1" d="M165,145.12l.45,27.27-5.38.09-.18-11.08-12.19.2.18,11.08-5.37.08-.44-27.26,5.37-.09.18,11,12.19-.2-.18-11Z"/><path class="cls-1" d="M180.78,148.93l17.11,7.3-2,4.77-12.17-5.19-2.28,5.35,10.77,4.59-2,4.78-10.77-4.6-2.31,5.42,12.65,5.39-2,4.78L170.07,174Z"/><path class="cls-1" d="M154.13,290.14a50.51,50.51,0,1,1,50.51-50.51A50.56,50.56,0,0,1,154.13,290.14Zm0-81.06a30.56,30.56,0,1,0,30.55,30.55A30.59,30.59,0,0,0,154.13,209.08Z"/><g id="d"><path class="cls-1" d="M449.5,290.14A50.51,50.51,0,1,1,500,239.63,50.57,50.57,0,0,1,449.5,290.14Zm0-81.06a30.56,30.56,0,1,0,30.55,30.55A30.59,30.59,0,0,0,449.5,209.08Z"/><rect class="cls-1" x="480.05" y="149.43" width="19.95" height="137.76"/></g><g id="f"><path class="cls-1" d="M38.12,337.35H18.17V178.43c-.59-20,5.95-35.88,18.94-46C52.7,120.36,77.9,121.26,91,134.39L76.92,148.5c-6-6.05-20-6.18-27.57-.27-9.82,7.62-11.53,20.38-11.24,29.74V337.35Z"/><rect class="cls-1" y="229.66" width="76.8" height="19.95"/></g><path class="cls-2" d="M104.53,136.89a114.13,114.13,0,0,1,130.61,22.43"/><path class="cls-2" d="M204.53,333.28a136.46,136.46,0,0,0,218.07-26.6"/></g></svg>